<svg width="37" height="49" viewBox="0 0 37 49" fill="none" xmlns="http://www.w3.org/2000/svg">
<path d="M3.52529 30.6771C-1.85216 25.3219 2.62905 21.1143 21.4501 6.96127C12.9358 14.6115 21.4501 24.9394 25.0351 27.9995C28.62 31.0596 31.7569 34.8848 29.9644 40.24C28.5304 44.5241 16.8195 47.3802 11.1433 48.2727C13.5333 47.7627 18.3133 45.7482 18.3133 41.77C18.3133 36.7973 8.90274 36.0323 3.52529 30.6771Z" fill="#FF6565"/>
<path d="M31.7569 30.6771C30.3229 27.617 24.2882 22.2618 21.4501 19.9667C18.5822 8.03231 28.3213 2.75362 33.5494 1.60608C32.205 3.00863 29.6059 6.73176 29.9644 10.4039C30.4125 14.9941 34.4456 15.3766 35.79 19.9667C36.8655 23.6389 33.5494 28.637 31.7569 30.6771Z" fill="#FF6565"/>
<path d="M3.52529 34.5023C0.985931 39.0924 -1.85218 48.2727 7.11024 48.2727C12.3383 45.8502 18.9407 39.7044 3.52529 34.5023Z" fill="#FF6565"/>
<path d="M3.52529 30.6771C-1.85216 25.3219 2.62905 21.1143 21.4501 6.96127C12.9358 14.6115 21.4501 24.9394 25.0351 27.9995C28.62 31.0596 31.7569 34.8848 29.9644 40.24C28.5304 44.5241 16.8195 47.3802 11.1433 48.2727C13.5333 47.7627 18.3133 45.7482 18.3133 41.77C18.3133 36.7973 8.90274 36.0323 3.52529 30.6771Z" stroke="black"/>
<path d="M31.7569 30.6771C30.3229 27.617 24.2882 22.2618 21.4501 19.9667C18.5822 8.03231 28.3213 2.75362 33.5494 1.60608C32.205 3.00863 29.6059 6.73176 29.9644 10.4039C30.4125 14.9941 34.4456 15.3766 35.79 19.9667C36.8655 23.6389 33.5494 28.637 31.7569 30.6771Z" stroke="black"/>
<path d="M3.52529 34.5023C0.985931 39.0924 -1.85218 48.2727 7.11024 48.2727C12.3383 45.8502 18.9407 39.7044 3.52529 34.5023Z" stroke="black"/>
</svg>
